/* XPM */ 
static const char* RealtimeSync_xpm[] = {
"32 32 277 2",
"  	c None",
"! 	c black",
"# 	c #2A0404",
"$ 	c #330505",
"% 	c #3D0707",
"& 	c #360606",
"' 	c #340606",
"( 	c #500909",
") 	c #630B0B",
"* 	c #890F0F",
"+ 	c #AC1414",
", 	c #AB1414",
"- 	c #9F1212",
". 	c #820F0F",
"0 	c #510909",
"1 	c #2F0505",
"2 	c #530A0A",
"3 	c #8B1010",
"4 	c #E83E3E",
"5 	c #F39494",
"6 	c #F6ADAD",
"7 	c #F49B9B",
"8 	c #F07E7E",
"9 	c #EC5C5C",
": 	c #E73636",
"; 	c #D71818",
"< 	c #AD1414",
"= 	c #7C0E0E",
"> 	c #410707",
"? 	c #E73232",
"@ 	c #FACECE",
"A 	c #FCDFDF",
"B 	c #F7B8B8",
"C 	c #F39090",
"D 	c #EF6E6E",
"E 	c #EA4D4D",
"F 	c #E72D2D",
"G 	c #E41E1E",
"H 	c #E31F1F",
"I 	c #E52121",
"J 	c #E31C1C",
"K 	c #670C0C",
"L 	c #380606",
"M 	c #420808",
"N 	c #6D0C0C",
"O 	c #F07777",
"P 	c #FEEEEE",
"Q 	c #F9C6C6",
"R 	c #F49D9D",
"S 	c #EC5D5D",
"T 	c #E83C3C",
"U 	c #E62121",
"V 	c #E41A1A",
"W 	c #E41D1D",
"X 	c #E21E1E",
"Y 	c #E41C1C",
"Z 	c #E51C1C",
"[ 	c #C71717",
"] 	c #720C0C",
"^ 	c #330606",
"_ 	c #640C0C",
"` 	c #EF7171",
"a 	c #FCE3E3",
"b 	c #F6AFAF",
"c 	c #F28D8D",
"d 	c #E72E2E",
"e 	c #E62020",
"f 	c #E51A1A",
"g 	c #E51F1F",
"h 	c #CA1818",
"i 	c #680C0C",
"j 	c #260404",
"k 	c #4F0909",
"l 	c #540A0A",
"m 	c #520909",
"n 	c #E72F2F",
"o 	c #FAD3D3",
"p 	c #F4A0A0",
"q 	c #F17E7E",
"r 	c #ED5E5E",
"s 	c #E93E3E",
"t 	c #E62525",
"u 	c #E51B1B",
"v 	c #BD1616",
"w 	c #941111",
"x 	c #810E0E",
"y 	c #830F0F",
"z 	c #991111",
"{ 	c #E21A1A",
"| 	c #B41515",
"} 	c #420707",
"~ 	c #8C1010",
" !	c #E62323",
"!!	c #C91717",
"#!	c #B21515",
"$!	c #EB5050",
"%!	c #E73030",
"&!	c #DC1919",
"'!	c #250404",
"(!	c #550A0A",
")!	c #7B0E0E",
"*!	c #BC1616",
"+!	c #860F0F",
",!	c #310505",
"-!	c #3F0707",
".!	c #F07676",
"0!	c #EB5656",
"1!	c #E62727",
"2!	c #E62424",
"3!	c #E21D1D",
"4!	c #DE1919",
"5!	c #7A0E0E",
"6!	c #470808",
"7!	c #350606",
"8!	c #5B0A0A",
"9!	c #971111",
":!	c #DF1919",
";!	c #BF1616",
"<!	c #951111",
"=!	c #EA4E4E",
">!	c #E61F1F",
"?!	c #E41B1B",
"@!	c #E31A1A",
"A!	c #D41919",
"B!	c #8D1010",
"C!	c #5D0B0B",
"D!	c #390606",
"E!	c #1F0303",
"F!	c #4E0909",
"G!	c #D61818",
"H!	c #750D0D",
"I!	c #270404",
"J!	c #6A0C0C",
"K!	c #E62222",
"L!	c #C81717",
"M!	c #790D0D",
"N!	c #290404",
"O!	c #460808",
"P!	c #770D0D",
"Q!	c #D81818",
"R!	c #A21212",
"S!	c #E52020",
"T!	c #931111",
"U!	c #7D0E0E",
"V!	c #A61313",
"W!	c #450808",
"X!	c #3A0606",
"Y!	c #570A0A",
"Z!	c #2E0505",
"[!	c #440808",
"]!	c #580A0A",
"^!	c #630C0C",
"_!	c #BA1616",
"`!	c #D51818",
"a!	c #180202",
"b!	c #EC5959",
"c!	c #F39292",
"d!	c #3C0707",
"e!	c #DF1A1A",
"f!	c #6C0C0C",
"g!	c #300505",
"h!	c #D11818",
"i!	c #FFFEFE",
"j!	c white",
"k!	c #FCDDDD",
"l!	c #8A1010",
"m!	c #D41818",
"n!	c #A91313",
"o!	c #730D0D",
"p!	c #1D0303",
"q!	c #4B0909",
"r!	c #AF1414",
"s!	c #F39797",
"t!	c #FFFBFB",
"u!	c #FFFAFA",
"v!	c #FDEBEB",
"w!	c #FCDEDE",
"x!	c #FBD4D4",
"y!	c #FBDADA",
"z!	c #EB4E4E",
"{!	c #880F0F",
"|!	c #200303",
"}!	c #600B0B",
"~!	c #F9CBCB",
" #	c #FBD7D7",
"!#	c #F8BEBE",
"##	c #F5A5A5",
"$#	c #F49C9C",
"%#	c #F39191",
"&#	c #F28989",
"'#	c #F07B7B",
"(#	c #A71313",
")#	c #700D0D",
"*#	c #140202",
"+#	c #E73333",
",#	c #F5A8A8",
"-#	c #F39393",
".#	c #F18282",
"0#	c #F07878",
"1#	c #EE6C6C",
"2#	c #ED6262",
"3#	c #EC5757",
"4#	c #E94242",
"5#	c #E94141",
"6#	c #DA1919",
"7#	c #F38E8E",
"8#	c #690C0C",
"9#	c #760D0D",
":#	c #EC5A5A",
";#	c #EA4949",
"<#	c #E93F3F",
"=#	c #E62626",
">#	c #DD1919",
"?#	c #6F0C0C",
"@#	c #2C0505",
"A#	c #FEEBEB",
"B#	c #F07D7D",
"C#	c #6B0C0C",
"D#	c #911010",
"E#	c #D21818",
"F#	c #E31B1B",
"G#	c #E11D1D",
"H#	c #400707",
"I#	c #EE6666",
"J#	c #7F0E0E",
"K#	c #5C0B0B",
"L#	c #E62828",
"M#	c #B11414",
"N#	c #F39A9A",
"O#	c #ED6565",
"P#	c #A31313",
"Q#	c #370606",
"R#	c #840F0F",
"S#	c #E21B1B",
"T#	c #E31D1D",
"U#	c #B61515",
"V#	c #ED6161",
"W#	c #EB5555",
"X#	c #490808",
"Y#	c #3B0707",
"Z#	c #650C0C",
"[#	c #9E1212",
"]#	c #E41F1F",
"^#	c #E51D1D",
"_#	c #800E0E",
"`#	c #921111",
"a#	c #4A0808",
"b#	c #320505",
"c#	c #E73535",
"d#	c #E72A2A",
"e#	c #E72B2B",
"f#	c #E42020",
"g#	c #B11515",
"h#	c #E51E1E",
"i#	c #E31E1E",
"j#	c #530909",
"k#	c #E42121",
"l#	c #610B0B",
"m#	c #4D0909",
"n#	c #DB1A1A",
"o#	c #AA1414",
"p#	c #620B0B",
"q#	c #720D0D",
"r#	c #B31515",
"s#	c #E11919",
"t#	c #C61717",
"u#	c #5A0A0A",
"v#	c #BB1616",
"w#	c #CC1818",
"x#	c #C11717",
"y#	c #850F0F",
"z#	c #1E0303",
"{#	c #2B0505",
"|#	c #560A0A",
"}#	c #5F0B0B",
"~#	c #210303",
" $	c #170202",
"                                                                ",
"                          # $ % & #                             ",
"                    ' ( ) * + , - . ) 0 $                       ",
"                1 2 3 4 5 6 7 8 9 : ; < = 2 #                   ",
"              > ) ? @ A B C D E F G H I J < K L                 ",
"            M N O P Q R 8 S T U V W X Y Z I [ ] &               ",
"          ^ _ ` a b c D E d e G f Y g e W Y f h i j             ",
"  k l l m 2 n o p q r s t u v w x y z v { f f f | 2             ",
"} ~ d  !!!#!q C ` $!%!g &!~ 0 1 '!j L (!)!*!f f f +!,!          ",
"-!*!.!0!4 1!Y 2!d 2!3!4!5!6!            7!8!9!:!f ;!2           ",
"% <!=!: >!?!V @!{ V W A!B!C!D!            E!F!x G!f H!E!        ",
"I!J!e K!?!f ?!u ?!J f f f L!M!N!              O!P!Q!R!1         ",
"  l < S!f ?!u ?!J f f f f f T!#                 } U!V!W!        ",
"  X!= V Z u ?!J f f f f f + Y!                Z![!]!^!]!        ",
"    8!_!I ?!J f f f f `!T!0 a!            ,!Y!#!b!c!;!l         ",
"    d!P!e!Z f f f 4!+ f!X!            g!]!h!R i!j!j!k!l!&       ",
"      2 +!{ f m!n!o!W!p!            q!r!s!t!u!v!w!x!y!z!Y!      ",
"      O!]!x {!_ > |!              }!F ~! #!#b ##$#%#&#'#~ X!    ",
"      & (#)#6!*#                8!+#,#-#.#0#1#2#3#=!4#5#;!(!    ",
"      '!6#7#8#Z!                9#S :#;#<#: F =#I Z 3!Y >#?#@#  ",
"        U!A#B#C#X!              m D#E#X F#G#V G#F#J Y 3!Y T!H#  ",
"        ( 2#y!I#J#O!              W!K#v L#Y J f f f f f f M#0   ",
"        ,!r!$#N#O#P#]!Q#          W!R#S#U T#?!T#X ?!V f f U#Y!  ",
"          8!? 1#V#W#h!y C!X#Y#q!Z#[#S#]#W G ^#G ?!* _#`#w P!a#  ",
"          b#J#? c#d#e#f#h g#+ | `!g h#Y Y i#Y f V!j#^ & D!'     ",
"            6!l!J h#J W k#U K!U ]#Y ?!f f f f U#l#g!            ",
"              m#{!n#e h#i#J u f f f f f f f o#p#X!              ",
"                W!q#r#s#f f f f f f f f t#{!u#b#                ",
"                  Z!2 P!- v#w#G!h!x#o#y#p#O!z#                  ",
"                      {#> |#}#p#}!8!m#X!~#                      ",
"                               $ $                              ",
"                                                                "};